<mxfile host="app.diagrams.net" modified="2022-08-04T10:43:57.061Z" agent="5.0 (X11)" etag="a5SmQ6kI-ompmjHUgtBk" version="20.2.3" type="github" pages="4">
  <diagram id="f2ciFOSB5QWkLeRYvo7Q" name="block_chain">
    <mxGraphModel dx="2062" dy="1091" grid="1" gridSize="10" guides="1" tooltips="1" connect="1" arrows="1" fold="1" page="1" pageScale="1" pageWidth="850" pageHeight="1100" math="0" shadow="0">
      <root>
        <mxCell id="0" />
        <mxCell id="1" parent="0" />
        <mxCell id="VLHIMrBtYk3J3vSGHkTV-1" value="&lt;font data-font-src=&quot;https://fonts.googleapis.com/css?family=Gloria+Hallelujah&quot; face=&quot;Gloria Hallelujah&quot;&gt;Genesis&lt;/font&gt;" style="rounded=1;whiteSpace=wrap;html=1;sketch=1;hachureGap=4;fontFamily=Architects Daughter;fontSource=https%3A%2F%2Ffonts.googleapis.com%2Fcss%3Ffamily%3DArchitects%2BDaughter;fontSize=20;" parent="1" vertex="1">
          <mxGeometry x="40" y="80" width="110" height="60" as="geometry" />
        </mxCell>
        <mxCell id="VLHIMrBtYk3J3vSGHkTV-3" value="&lt;font data-font-src=&quot;https://fonts.googleapis.com/css?family=Gloria+Hallelujah&quot; face=&quot;Gloria Hallelujah&quot;&gt;Block 1&lt;/font&gt;" style="rounded=1;whiteSpace=wrap;html=1;sketch=1;hachureGap=4;fontFamily=Architects Daughter;fontSource=https%3A%2F%2Ffonts.googleapis.com%2Fcss%3Ffamily%3DArchitects%2BDaughter;fontSize=20;" parent="1" vertex="1">
          <mxGeometry x="190" y="80" width="110" height="60" as="geometry" />
        </mxCell>
        <mxCell id="VLHIMrBtYk3J3vSGHkTV-4" value="Block 2" style="rounded=1;whiteSpace=wrap;html=1;sketch=1;hachureGap=4;fontFamily=Gloria Hallelujah;fontSource=https%3A%2F%2Ffonts.googleapis.com%2Fcss%3Ffamily%3DGloria%2BHallelujah;fontSize=20;" parent="1" vertex="1">
          <mxGeometry x="340" y="80" width="110" height="60" as="geometry" />
        </mxCell>
        <mxCell id="VLHIMrBtYk3J3vSGHkTV-5" value="Block 21" style="rounded=1;whiteSpace=wrap;html=1;sketch=1;hachureGap=4;fontFamily=Gloria Hallelujah;fontSource=https%3A%2F%2Ffonts.googleapis.com%2Fcss%3Ffamily%3DGloria%2BHallelujah;fontSize=20;" parent="1" vertex="1">
          <mxGeometry x="540" y="80" width="110" height="60" as="geometry" />
        </mxCell>
        <mxCell id="VLHIMrBtYk3J3vSGHkTV-6" value="Block 22" style="rounded=1;whiteSpace=wrap;html=1;sketch=1;hachureGap=4;fontFamily=Gloria Hallelujah;fontSource=https%3A%2F%2Ffonts.googleapis.com%2Fcss%3Ffamily%3DGloria%2BHallelujah;fontSize=20;" parent="1" vertex="1">
          <mxGeometry x="690" y="80" width="110" height="60" as="geometry" />
        </mxCell>
        <mxCell id="VLHIMrBtYk3J3vSGHkTV-7" value="" style="endArrow=classicThin;html=1;sketch=1;hachureGap=2;fontFamily=Gloria Hallelujah;fontSource=https%3A%2F%2Ffonts.googleapis.com%2Fcss%3Ffamily%3DGloria%2BHallelujah;fontSize=16;startSize=14;endSize=14;sourcePerimeterSpacing=8;targetPerimeterSpacing=8;entryX=1;entryY=0.5;entryDx=0;entryDy=0;exitX=0;exitY=0.5;exitDx=0;exitDy=0;endFill=1;curved=1;strokeColor=default;metaEdit=0;disableMultiStroke=0;startFill=1;" parent="1" source="VLHIMrBtYk3J3vSGHkTV-3" target="VLHIMrBtYk3J3vSGHkTV-1" edge="1">
          <mxGeometry width="50" height="50" relative="1" as="geometry">
            <mxPoint x="400" y="590" as="sourcePoint" />
            <mxPoint x="450" y="540" as="targetPoint" />
          </mxGeometry>
        </mxCell>
        <mxCell id="NPRbbqzTrsGP8xS9bHB--1" value="" style="endArrow=classicThin;html=1;sketch=1;hachureGap=2;fontFamily=Gloria Hallelujah;fontSource=https%3A%2F%2Ffonts.googleapis.com%2Fcss%3Ffamily%3DGloria%2BHallelujah;fontSize=16;startSize=14;endSize=14;sourcePerimeterSpacing=8;targetPerimeterSpacing=8;entryX=1;entryY=0.5;entryDx=0;entryDy=0;exitX=0;exitY=0.5;exitDx=0;exitDy=0;endFill=1;curved=1;strokeColor=default;metaEdit=0;disableMultiStroke=0;startFill=1;" parent="1" source="VLHIMrBtYk3J3vSGHkTV-4" target="VLHIMrBtYk3J3vSGHkTV-3" edge="1">
          <mxGeometry width="50" height="50" relative="1" as="geometry">
            <mxPoint x="200" y="120" as="sourcePoint" />
            <mxPoint x="160" y="120" as="targetPoint" />
          </mxGeometry>
        </mxCell>
        <mxCell id="NPRbbqzTrsGP8xS9bHB--2" value="" style="endArrow=classicThin;html=1;sketch=1;hachureGap=2;fontFamily=Gloria Hallelujah;fontSource=https%3A%2F%2Ffonts.googleapis.com%2Fcss%3Ffamily%3DGloria%2BHallelujah;fontSize=16;startSize=14;endSize=14;sourcePerimeterSpacing=8;targetPerimeterSpacing=8;entryX=1;entryY=0.5;entryDx=0;entryDy=0;endFill=1;curved=1;strokeColor=default;metaEdit=0;disableMultiStroke=0;startFill=1;" parent="1" target="VLHIMrBtYk3J3vSGHkTV-4" edge="1">
          <mxGeometry width="50" height="50" relative="1" as="geometry">
            <mxPoint x="486" y="109" as="sourcePoint" />
            <mxPoint x="170" y="130" as="targetPoint" />
          </mxGeometry>
        </mxCell>
        <mxCell id="NPRbbqzTrsGP8xS9bHB--3" value="" style="endArrow=classicThin;html=1;sketch=1;hachureGap=2;fontFamily=Gloria Hallelujah;fontSource=https%3A%2F%2Ffonts.googleapis.com%2Fcss%3Ffamily%3DGloria%2BHallelujah;fontSize=16;startSize=14;endSize=14;sourcePerimeterSpacing=8;targetPerimeterSpacing=8;entryX=1;entryY=0.5;entryDx=0;entryDy=0;exitX=0;exitY=0.5;exitDx=0;exitDy=0;endFill=1;curved=1;strokeColor=default;metaEdit=0;disableMultiStroke=0;startFill=1;" parent="1" source="VLHIMrBtYk3J3vSGHkTV-6" target="VLHIMrBtYk3J3vSGHkTV-5" edge="1">
          <mxGeometry width="50" height="50" relative="1" as="geometry">
            <mxPoint x="220" y="140" as="sourcePoint" />
            <mxPoint x="180" y="140" as="targetPoint" />
          </mxGeometry>
        </mxCell>
        <mxCell id="NPRbbqzTrsGP8xS9bHB--4" value="" style="endArrow=classicThin;html=1;sketch=1;hachureGap=2;fontFamily=Gloria Hallelujah;fontSource=https%3A%2F%2Ffonts.googleapis.com%2Fcss%3Ffamily%3DGloria%2BHallelujah;fontSize=16;startSize=14;endSize=14;sourcePerimeterSpacing=8;targetPerimeterSpacing=8;endFill=1;curved=1;strokeColor=default;metaEdit=0;disableMultiStroke=0;startFill=1;exitX=0;exitY=0.5;exitDx=0;exitDy=0;" parent="1" source="VLHIMrBtYk3J3vSGHkTV-5" edge="1">
          <mxGeometry width="50" height="50" relative="1" as="geometry">
            <mxPoint x="490" y="120" as="sourcePoint" />
            <mxPoint x="500" y="110" as="targetPoint" />
          </mxGeometry>
        </mxCell>
        <mxCell id="NPRbbqzTrsGP8xS9bHB--8" value="" style="endArrow=none;html=1;sketch=1;hachureGap=4;jiggle=1;disableMultiStroke=0;fontFamily=Gloria Hallelujah;fontSource=https%3A%2F%2Ffonts.googleapis.com%2Fcss%3Ffamily%3DGloria%2BHallelujah;fontSize=16;sourcePerimeterSpacing=8;targetPerimeterSpacing=8;strokeColor=default;strokeWidth=1;curved=1;" parent="1" edge="1">
          <mxGeometry width="50" height="50" relative="1" as="geometry">
            <mxPoint x="485" y="141" as="sourcePoint" />
            <mxPoint x="485" y="81" as="targetPoint" />
            <Array as="points">
              <mxPoint x="478" y="125" />
              <mxPoint x="493" y="95" />
            </Array>
          </mxGeometry>
        </mxCell>
        <mxCell id="NPRbbqzTrsGP8xS9bHB--9" value="" style="endArrow=none;html=1;sketch=1;hachureGap=4;jiggle=1;disableMultiStroke=0;fontFamily=Gloria Hallelujah;fontSource=https%3A%2F%2Ffonts.googleapis.com%2Fcss%3Ffamily%3DGloria%2BHallelujah;fontSize=16;sourcePerimeterSpacing=8;targetPerimeterSpacing=8;strokeColor=default;strokeWidth=1;curved=1;" parent="1" edge="1">
          <mxGeometry width="50" height="50" relative="1" as="geometry">
            <mxPoint x="500" y="141" as="sourcePoint" />
            <mxPoint x="500" y="81" as="targetPoint" />
            <Array as="points">
              <mxPoint x="493" y="125" />
              <mxPoint x="508" y="95" />
            </Array>
          </mxGeometry>
        </mxCell>
      </root>
    </mxGraphModel>
  </diagram>
  <diagram id="1heqYugbOR7fx1SHDa8x" name="block_tree">
    <mxGraphModel dx="2062" dy="1091" grid="1" gridSize="10" guides="1" tooltips="1" connect="1" arrows="1" fold="1" page="1" pageScale="1" pageWidth="850" pageHeight="1100" math="0" shadow="0">
      <root>
        <mxCell id="0" />
        <mxCell id="1" parent="0" />
        <mxCell id="9dDPcx8fG81m2TWgUdLZ-1" value="&lt;font data-font-src=&quot;https://fonts.googleapis.com/css?family=Gloria+Hallelujah&quot; face=&quot;Gloria Hallelujah&quot;&gt;Block A&lt;br&gt;&lt;/font&gt;" style="rounded=1;whiteSpace=wrap;html=1;sketch=1;hachureGap=4;fontFamily=Architects Daughter;fontSource=https%3A%2F%2Ffonts.googleapis.com%2Fcss%3Ffamily%3DArchitects%2BDaughter;fontSize=20;" parent="1" vertex="1">
          <mxGeometry x="80" y="170" width="110" height="60" as="geometry" />
        </mxCell>
        <mxCell id="9dDPcx8fG81m2TWgUdLZ-2" value="&lt;font data-font-src=&quot;https://fonts.googleapis.com/css?family=Gloria+Hallelujah&quot; face=&quot;Gloria Hallelujah&quot;&gt;Block B&lt;br&gt;&lt;/font&gt;" style="rounded=1;whiteSpace=wrap;html=1;sketch=1;hachureGap=4;fontFamily=Architects Daughter;fontSource=https%3A%2F%2Ffonts.googleapis.com%2Fcss%3Ffamily%3DArchitects%2BDaughter;fontSize=20;" parent="1" vertex="1">
          <mxGeometry x="230" y="241" width="110" height="60" as="geometry" />
        </mxCell>
        <mxCell id="9dDPcx8fG81m2TWgUdLZ-3" value="&lt;font data-font-src=&quot;https://fonts.googleapis.com/css?family=Gloria+Hallelujah&quot; face=&quot;Gloria Hallelujah&quot;&gt;Block C&lt;/font&gt;" style="rounded=1;whiteSpace=wrap;html=1;sketch=1;hachureGap=4;fontFamily=Architects Daughter;fontSource=https%3A%2F%2Ffonts.googleapis.com%2Fcss%3Ffamily%3DArchitects%2BDaughter;fontSize=20;" parent="1" vertex="1">
          <mxGeometry x="380" y="110" width="110" height="60" as="geometry" />
        </mxCell>
        <mxCell id="9dDPcx8fG81m2TWgUdLZ-4" value="&lt;font data-font-src=&quot;https://fonts.googleapis.com/css?family=Gloria+Hallelujah&quot; face=&quot;Gloria Hallelujah&quot;&gt;Block D&lt;br&gt;&lt;/font&gt;" style="rounded=1;whiteSpace=wrap;html=1;sketch=1;hachureGap=4;fontFamily=Architects Daughter;fontSource=https%3A%2F%2Ffonts.googleapis.com%2Fcss%3Ffamily%3DArchitects%2BDaughter;fontSize=20;" parent="1" vertex="1">
          <mxGeometry x="530" y="200" width="110" height="60" as="geometry" />
        </mxCell>
        <mxCell id="9dDPcx8fG81m2TWgUdLZ-5" value="&lt;font data-font-src=&quot;https://fonts.googleapis.com/css?family=Gloria+Hallelujah&quot; face=&quot;Gloria Hallelujah&quot;&gt;Block E&lt;br&gt;&lt;/font&gt;" style="rounded=1;whiteSpace=wrap;html=1;sketch=1;hachureGap=4;fontFamily=Architects Daughter;fontSource=https%3A%2F%2Ffonts.googleapis.com%2Fcss%3Ffamily%3DArchitects%2BDaughter;fontSize=20;" parent="1" vertex="1">
          <mxGeometry x="680" y="290" width="110" height="60" as="geometry" />
        </mxCell>
        <mxCell id="nmfGZcjmUFGCk838QM5b-1" value="" style="endArrow=classicThin;html=1;sketch=1;hachureGap=2;fontFamily=Gloria Hallelujah;fontSource=https%3A%2F%2Ffonts.googleapis.com%2Fcss%3Ffamily%3DGloria%2BHallelujah;fontSize=16;startSize=14;endSize=14;sourcePerimeterSpacing=8;targetPerimeterSpacing=8;entryX=1;entryY=0.5;entryDx=0;entryDy=0;exitX=0;exitY=0.5;exitDx=0;exitDy=0;endFill=1;curved=1;strokeColor=default;metaEdit=0;disableMultiStroke=0;startFill=1;" parent="1" source="9dDPcx8fG81m2TWgUdLZ-3" target="9dDPcx8fG81m2TWgUdLZ-1" edge="1">
          <mxGeometry width="50" height="50" relative="1" as="geometry">
            <mxPoint x="190" y="110" as="sourcePoint" />
            <mxPoint x="150" y="110" as="targetPoint" />
          </mxGeometry>
        </mxCell>
        <mxCell id="nmfGZcjmUFGCk838QM5b-2" value="" style="endArrow=classicThin;html=1;sketch=1;hachureGap=2;fontFamily=Gloria Hallelujah;fontSource=https%3A%2F%2Ffonts.googleapis.com%2Fcss%3Ffamily%3DGloria%2BHallelujah;fontSize=16;startSize=14;endSize=14;sourcePerimeterSpacing=8;targetPerimeterSpacing=8;entryX=1;entryY=0.5;entryDx=0;entryDy=0;exitX=0;exitY=0.5;exitDx=0;exitDy=0;endFill=1;curved=1;strokeColor=default;metaEdit=0;disableMultiStroke=0;startFill=1;" parent="1" source="9dDPcx8fG81m2TWgUdLZ-2" target="9dDPcx8fG81m2TWgUdLZ-1" edge="1">
          <mxGeometry width="50" height="50" relative="1" as="geometry">
            <mxPoint x="390" y="150" as="sourcePoint" />
            <mxPoint x="200" y="210" as="targetPoint" />
          </mxGeometry>
        </mxCell>
        <mxCell id="nmfGZcjmUFGCk838QM5b-3" value="" style="endArrow=classicThin;html=1;sketch=1;hachureGap=2;fontFamily=Gloria Hallelujah;fontSource=https%3A%2F%2Ffonts.googleapis.com%2Fcss%3Ffamily%3DGloria%2BHallelujah;fontSize=16;startSize=14;endSize=14;sourcePerimeterSpacing=8;targetPerimeterSpacing=8;entryX=1;entryY=0.5;entryDx=0;entryDy=0;exitX=0;exitY=0.5;exitDx=0;exitDy=0;endFill=1;curved=1;strokeColor=default;metaEdit=0;disableMultiStroke=0;startFill=1;" parent="1" source="9dDPcx8fG81m2TWgUdLZ-4" target="9dDPcx8fG81m2TWgUdLZ-2" edge="1">
          <mxGeometry width="50" height="50" relative="1" as="geometry">
            <mxPoint x="240" y="281" as="sourcePoint" />
            <mxPoint x="200" y="210" as="targetPoint" />
          </mxGeometry>
        </mxCell>
        <mxCell id="nmfGZcjmUFGCk838QM5b-4" value="" style="endArrow=classicThin;html=1;sketch=1;hachureGap=2;fontFamily=Gloria Hallelujah;fontSource=https%3A%2F%2Ffonts.googleapis.com%2Fcss%3Ffamily%3DGloria%2BHallelujah;fontSize=16;startSize=14;endSize=14;sourcePerimeterSpacing=8;targetPerimeterSpacing=8;exitX=0;exitY=0.5;exitDx=0;exitDy=0;endFill=1;curved=1;strokeColor=default;metaEdit=0;disableMultiStroke=0;startFill=1;" parent="1" source="9dDPcx8fG81m2TWgUdLZ-5" edge="1">
          <mxGeometry width="50" height="50" relative="1" as="geometry">
            <mxPoint x="250" y="291" as="sourcePoint" />
            <mxPoint x="340" y="270" as="targetPoint" />
          </mxGeometry>
        </mxCell>
        <mxCell id="nmfGZcjmUFGCk838QM5b-5" value="&lt;font data-font-src=&quot;https://fonts.googleapis.com/css?family=Gloria+Hallelujah&quot; face=&quot;Gloria Hallelujah&quot;&gt;Block F&lt;br&gt;&lt;/font&gt;" style="rounded=1;whiteSpace=wrap;html=1;sketch=1;hachureGap=4;fontFamily=Architects Daughter;fontSource=https%3A%2F%2Ffonts.googleapis.com%2Fcss%3Ffamily%3DArchitects%2BDaughter;fontSize=20;" parent="1" vertex="1">
          <mxGeometry x="830" y="200" width="110" height="60" as="geometry" />
        </mxCell>
        <mxCell id="nmfGZcjmUFGCk838QM5b-6" value="" style="endArrow=classicThin;html=1;sketch=1;hachureGap=2;fontFamily=Gloria Hallelujah;fontSource=https%3A%2F%2Ffonts.googleapis.com%2Fcss%3Ffamily%3DGloria%2BHallelujah;fontSize=16;startSize=14;endSize=14;sourcePerimeterSpacing=8;targetPerimeterSpacing=8;entryX=1;entryY=0.5;entryDx=0;entryDy=0;exitX=0;exitY=0.5;exitDx=0;exitDy=0;endFill=1;curved=1;strokeColor=default;metaEdit=0;disableMultiStroke=0;startFill=1;" parent="1" source="nmfGZcjmUFGCk838QM5b-5" target="9dDPcx8fG81m2TWgUdLZ-4" edge="1">
          <mxGeometry width="50" height="50" relative="1" as="geometry">
            <mxPoint x="540" y="240" as="sourcePoint" />
            <mxPoint x="350" y="281" as="targetPoint" />
          </mxGeometry>
        </mxCell>
      </root>
    </mxGraphModel>
  </diagram>
  <diagram name="block_tree_resolved" id="tsNsh56INHrrU9oGqfnp">
    <mxGraphModel dx="2062" dy="1091" grid="1" gridSize="10" guides="1" tooltips="1" connect="1" arrows="1" fold="1" page="1" pageScale="1" pageWidth="850" pageHeight="1100" math="0" shadow="0">
      <root>
        <mxCell id="PgmLvf2wmEe-h0lJ6J2Q-0" />
        <mxCell id="PgmLvf2wmEe-h0lJ6J2Q-1" parent="PgmLvf2wmEe-h0lJ6J2Q-0" />
        <mxCell id="PgmLvf2wmEe-h0lJ6J2Q-2" value="&lt;font data-font-src=&quot;https://fonts.googleapis.com/css?family=Gloria+Hallelujah&quot; face=&quot;Gloria Hallelujah&quot;&gt;Block A&lt;br&gt;&lt;/font&gt;" style="rounded=1;whiteSpace=wrap;html=1;sketch=1;hachureGap=4;fontFamily=Architects Daughter;fontSource=https%3A%2F%2Ffonts.googleapis.com%2Fcss%3Ffamily%3DArchitects%2BDaughter;fontSize=20;fillColor=#000000;" parent="PgmLvf2wmEe-h0lJ6J2Q-1" vertex="1">
          <mxGeometry x="80" y="170" width="110" height="60" as="geometry" />
        </mxCell>
        <mxCell id="PgmLvf2wmEe-h0lJ6J2Q-3" value="&lt;font data-font-src=&quot;https://fonts.googleapis.com/css?family=Gloria+Hallelujah&quot; face=&quot;Gloria Hallelujah&quot;&gt;Block B&lt;br&gt;&lt;/font&gt;" style="rounded=1;whiteSpace=wrap;html=1;sketch=1;hachureGap=4;fontFamily=Architects Daughter;fontSource=https%3A%2F%2Ffonts.googleapis.com%2Fcss%3Ffamily%3DArchitects%2BDaughter;fontSize=20;fillColor=#000000;fillStyle=hachure;" parent="PgmLvf2wmEe-h0lJ6J2Q-1" vertex="1">
          <mxGeometry x="230" y="241" width="110" height="60" as="geometry" />
        </mxCell>
        <mxCell id="PgmLvf2wmEe-h0lJ6J2Q-4" value="&lt;font data-font-src=&quot;https://fonts.googleapis.com/css?family=Gloria+Hallelujah&quot; face=&quot;Gloria Hallelujah&quot;&gt;Block C&lt;/font&gt;" style="rounded=1;whiteSpace=wrap;html=1;sketch=1;hachureGap=4;fontFamily=Architects Daughter;fontSource=https%3A%2F%2Ffonts.googleapis.com%2Fcss%3Ffamily%3DArchitects%2BDaughter;fontSize=20;dashed=1;" parent="PgmLvf2wmEe-h0lJ6J2Q-1" vertex="1">
          <mxGeometry x="380" y="110" width="110" height="60" as="geometry" />
        </mxCell>
        <mxCell id="PgmLvf2wmEe-h0lJ6J2Q-5" value="&lt;font data-font-src=&quot;https://fonts.googleapis.com/css?family=Gloria+Hallelujah&quot; face=&quot;Gloria Hallelujah&quot;&gt;Block D&lt;br&gt;&lt;/font&gt;" style="rounded=1;whiteSpace=wrap;html=1;sketch=1;hachureGap=4;fontFamily=Architects Daughter;fontSource=https%3A%2F%2Ffonts.googleapis.com%2Fcss%3Ffamily%3DArchitects%2BDaughter;fontSize=20;fillColor=#000000;fillStyle=hachure;" parent="PgmLvf2wmEe-h0lJ6J2Q-1" vertex="1">
          <mxGeometry x="530" y="200" width="110" height="60" as="geometry" />
        </mxCell>
        <mxCell id="PgmLvf2wmEe-h0lJ6J2Q-6" value="&lt;font data-font-src=&quot;https://fonts.googleapis.com/css?family=Gloria+Hallelujah&quot; face=&quot;Gloria Hallelujah&quot;&gt;Block E&lt;br&gt;&lt;/font&gt;" style="rounded=1;whiteSpace=wrap;html=1;sketch=1;hachureGap=4;fontFamily=Architects Daughter;fontSource=https%3A%2F%2Ffonts.googleapis.com%2Fcss%3Ffamily%3DArchitects%2BDaughter;fontSize=20;dashed=1;" parent="PgmLvf2wmEe-h0lJ6J2Q-1" vertex="1">
          <mxGeometry x="680" y="290" width="110" height="60" as="geometry" />
        </mxCell>
        <mxCell id="PgmLvf2wmEe-h0lJ6J2Q-7" value="" style="endArrow=classicThin;html=1;sketch=1;hachureGap=2;fontFamily=Gloria Hallelujah;fontSource=https%3A%2F%2Ffonts.googleapis.com%2Fcss%3Ffamily%3DGloria%2BHallelujah;fontSize=16;startSize=14;endSize=14;sourcePerimeterSpacing=8;targetPerimeterSpacing=8;entryX=1;entryY=0.5;entryDx=0;entryDy=0;exitX=0;exitY=0.5;exitDx=0;exitDy=0;endFill=1;curved=1;strokeColor=default;metaEdit=0;disableMultiStroke=0;startFill=1;dashed=1;" parent="PgmLvf2wmEe-h0lJ6J2Q-1" source="PgmLvf2wmEe-h0lJ6J2Q-4" target="PgmLvf2wmEe-h0lJ6J2Q-2" edge="1">
          <mxGeometry width="50" height="50" relative="1" as="geometry">
            <mxPoint x="190" y="110" as="sourcePoint" />
            <mxPoint x="150" y="110" as="targetPoint" />
          </mxGeometry>
        </mxCell>
        <mxCell id="PgmLvf2wmEe-h0lJ6J2Q-8" value="" style="endArrow=classicThin;html=1;sketch=1;hachureGap=2;fontFamily=Gloria Hallelujah;fontSource=https%3A%2F%2Ffonts.googleapis.com%2Fcss%3Ffamily%3DGloria%2BHallelujah;fontSize=16;startSize=14;endSize=14;sourcePerimeterSpacing=8;targetPerimeterSpacing=8;entryX=1;entryY=0.5;entryDx=0;entryDy=0;exitX=0;exitY=0.5;exitDx=0;exitDy=0;endFill=1;curved=1;strokeColor=default;metaEdit=0;disableMultiStroke=0;startFill=1;" parent="PgmLvf2wmEe-h0lJ6J2Q-1" source="PgmLvf2wmEe-h0lJ6J2Q-3" target="PgmLvf2wmEe-h0lJ6J2Q-2" edge="1">
          <mxGeometry width="50" height="50" relative="1" as="geometry">
            <mxPoint x="390" y="150" as="sourcePoint" />
            <mxPoint x="200" y="210" as="targetPoint" />
          </mxGeometry>
        </mxCell>
        <mxCell id="PgmLvf2wmEe-h0lJ6J2Q-9" value="" style="endArrow=classicThin;html=1;sketch=1;hachureGap=2;fontFamily=Gloria Hallelujah;fontSource=https%3A%2F%2Ffonts.googleapis.com%2Fcss%3Ffamily%3DGloria%2BHallelujah;fontSize=16;startSize=14;endSize=14;sourcePerimeterSpacing=8;targetPerimeterSpacing=8;entryX=1;entryY=0.5;entryDx=0;entryDy=0;exitX=0;exitY=0.5;exitDx=0;exitDy=0;endFill=1;curved=1;strokeColor=default;metaEdit=0;disableMultiStroke=0;startFill=1;" parent="PgmLvf2wmEe-h0lJ6J2Q-1" source="PgmLvf2wmEe-h0lJ6J2Q-5" target="PgmLvf2wmEe-h0lJ6J2Q-3" edge="1">
          <mxGeometry width="50" height="50" relative="1" as="geometry">
            <mxPoint x="240" y="281" as="sourcePoint" />
            <mxPoint x="200" y="210" as="targetPoint" />
          </mxGeometry>
        </mxCell>
        <mxCell id="PgmLvf2wmEe-h0lJ6J2Q-10" value="" style="endArrow=classicThin;html=1;sketch=1;hachureGap=2;fontFamily=Gloria Hallelujah;fontSource=https%3A%2F%2Ffonts.googleapis.com%2Fcss%3Ffamily%3DGloria%2BHallelujah;fontSize=16;startSize=14;endSize=14;sourcePerimeterSpacing=8;targetPerimeterSpacing=8;exitX=0;exitY=0.5;exitDx=0;exitDy=0;endFill=1;curved=1;strokeColor=default;metaEdit=0;disableMultiStroke=0;startFill=1;dashed=1;" parent="PgmLvf2wmEe-h0lJ6J2Q-1" source="PgmLvf2wmEe-h0lJ6J2Q-6" edge="1">
          <mxGeometry width="50" height="50" relative="1" as="geometry">
            <mxPoint x="250" y="291" as="sourcePoint" />
            <mxPoint x="340" y="270" as="targetPoint" />
          </mxGeometry>
        </mxCell>
        <mxCell id="PgmLvf2wmEe-h0lJ6J2Q-11" value="&lt;font data-font-src=&quot;https://fonts.googleapis.com/css?family=Gloria+Hallelujah&quot; face=&quot;Gloria Hallelujah&quot;&gt;Block F&lt;br&gt;&lt;/font&gt;" style="rounded=1;whiteSpace=wrap;html=1;sketch=1;hachureGap=4;fontFamily=Architects Daughter;fontSource=https%3A%2F%2Ffonts.googleapis.com%2Fcss%3Ffamily%3DArchitects%2BDaughter;fontSize=20;fillColor=#000000;fillStyle=hachure;" parent="PgmLvf2wmEe-h0lJ6J2Q-1" vertex="1">
          <mxGeometry x="830" y="200" width="110" height="60" as="geometry" />
        </mxCell>
        <mxCell id="PgmLvf2wmEe-h0lJ6J2Q-12" value="" style="endArrow=classicThin;html=1;sketch=1;hachureGap=2;fontFamily=Gloria Hallelujah;fontSource=https%3A%2F%2Ffonts.googleapis.com%2Fcss%3Ffamily%3DGloria%2BHallelujah;fontSize=16;startSize=14;endSize=14;sourcePerimeterSpacing=8;targetPerimeterSpacing=8;entryX=1;entryY=0.5;entryDx=0;entryDy=0;exitX=0;exitY=0.5;exitDx=0;exitDy=0;endFill=1;curved=1;strokeColor=default;metaEdit=0;disableMultiStroke=0;startFill=1;" parent="PgmLvf2wmEe-h0lJ6J2Q-1" source="PgmLvf2wmEe-h0lJ6J2Q-11" target="PgmLvf2wmEe-h0lJ6J2Q-5" edge="1">
          <mxGeometry width="50" height="50" relative="1" as="geometry">
            <mxPoint x="540" y="240" as="sourcePoint" />
            <mxPoint x="350" y="281" as="targetPoint" />
          </mxGeometry>
        </mxCell>
        <mxCell id="0ZdUYTIzbsZaXdyXQfFS-0" value="Head block" style="text;html=1;strokeColor=none;fillColor=none;align=center;verticalAlign=middle;whiteSpace=wrap;rounded=0;dashed=1;sketch=1;hachureGap=4;fillStyle=hachure;fontFamily=Gloria Hallelujah;fontSource=https%3A%2F%2Ffonts.googleapis.com%2Fcss%3Ffamily%3DGloria%2BHallelujah;fontSize=20;" parent="PgmLvf2wmEe-h0lJ6J2Q-1" vertex="1">
          <mxGeometry x="822.5" y="164" width="125" height="30" as="geometry" />
        </mxCell>
      </root>
    </mxGraphModel>
  </diagram>
  <diagram id="NJaGgVnQg7r9FIgEdA3C" name="partition">
    <mxGraphModel dx="2062" dy="1091" grid="1" gridSize="10" guides="1" tooltips="1" connect="1" arrows="1" fold="1" page="1" pageScale="1" pageWidth="850" pageHeight="1100" math="0" shadow="0">
      <root>
        <mxCell id="0" />
        <mxCell id="1" parent="0" />
        <mxCell id="_HJAgRzO269z1ja4Z7QZ-2" value="" style="shape=umlActor;verticalLabelPosition=bottom;verticalAlign=top;html=1;outlineConnect=0;sketch=1;" vertex="1" parent="1">
          <mxGeometry x="228" y="110" width="35" height="70" as="geometry" />
        </mxCell>
        <mxCell id="_HJAgRzO269z1ja4Z7QZ-3" value="" style="shape=umlActor;verticalLabelPosition=bottom;verticalAlign=top;html=1;outlineConnect=0;sketch=1;" vertex="1" parent="1">
          <mxGeometry x="310" y="150" width="35" height="70" as="geometry" />
        </mxCell>
        <mxCell id="_HJAgRzO269z1ja4Z7QZ-4" value="" style="shape=umlActor;verticalLabelPosition=bottom;verticalAlign=top;html=1;outlineConnect=0;sketch=1;" vertex="1" parent="1">
          <mxGeometry x="150" y="200" width="35" height="70" as="geometry" />
        </mxCell>
        <mxCell id="_HJAgRzO269z1ja4Z7QZ-5" value="" style="shape=umlActor;verticalLabelPosition=bottom;verticalAlign=top;html=1;outlineConnect=0;sketch=1;" vertex="1" parent="1">
          <mxGeometry x="220" y="260" width="35" height="70" as="geometry" />
        </mxCell>
        <mxCell id="_HJAgRzO269z1ja4Z7QZ-6" value="" style="shape=umlActor;verticalLabelPosition=bottom;verticalAlign=top;html=1;outlineConnect=0;sketch=1;" vertex="1" parent="1">
          <mxGeometry x="300" y="270" width="35" height="70" as="geometry" />
        </mxCell>
        <mxCell id="_HJAgRzO269z1ja4Z7QZ-7" value="" style="shape=umlActor;verticalLabelPosition=bottom;verticalAlign=top;html=1;outlineConnect=0;sketch=1;" vertex="1" parent="1">
          <mxGeometry x="404" y="120" width="35" height="70" as="geometry" />
        </mxCell>
        <mxCell id="_HJAgRzO269z1ja4Z7QZ-8" value="" style="shape=umlActor;verticalLabelPosition=bottom;verticalAlign=top;html=1;outlineConnect=0;sketch=1;" vertex="1" parent="1">
          <mxGeometry x="511" y="140" width="35" height="70" as="geometry" />
        </mxCell>
        <mxCell id="_HJAgRzO269z1ja4Z7QZ-9" value="" style="shape=umlActor;verticalLabelPosition=bottom;verticalAlign=top;html=1;outlineConnect=0;sketch=1;" vertex="1" parent="1">
          <mxGeometry x="396" y="260" width="35" height="70" as="geometry" />
        </mxCell>
        <mxCell id="_HJAgRzO269z1ja4Z7QZ-10" value="" style="shape=umlActor;verticalLabelPosition=bottom;verticalAlign=top;html=1;outlineConnect=0;sketch=1;" vertex="1" parent="1">
          <mxGeometry x="496" y="240" width="35" height="70" as="geometry" />
        </mxCell>
        <mxCell id="_HJAgRzO269z1ja4Z7QZ-14" value="" style="endArrow=classic;startArrow=classic;html=1;rounded=0;entryX=0;entryY=0.3333333333333333;entryDx=0;entryDy=0;entryPerimeter=0;" edge="1" parent="1" target="_HJAgRzO269z1ja4Z7QZ-3">
          <mxGeometry width="50" height="50" relative="1" as="geometry">
            <mxPoint x="250" y="250" as="sourcePoint" />
            <mxPoint x="450" y="540" as="targetPoint" />
          </mxGeometry>
        </mxCell>
        <mxCell id="_HJAgRzO269z1ja4Z7QZ-19" value="" style="endArrow=classic;startArrow=classic;html=1;rounded=0;" edge="1" parent="1">
          <mxGeometry width="50" height="50" relative="1" as="geometry">
            <mxPoint x="300" y="160" as="sourcePoint" />
            <mxPoint x="190" y="200" as="targetPoint" />
          </mxGeometry>
        </mxCell>
        <mxCell id="_HJAgRzO269z1ja4Z7QZ-20" value="" style="endArrow=classic;startArrow=classic;html=1;rounded=0;" edge="1" parent="1">
          <mxGeometry width="50" height="50" relative="1" as="geometry">
            <mxPoint x="260" y="270" as="sourcePoint" />
            <mxPoint x="300" y="280" as="targetPoint" />
          </mxGeometry>
        </mxCell>
        <mxCell id="_HJAgRzO269z1ja4Z7QZ-21" value="" style="endArrow=classic;startArrow=classic;html=1;rounded=0;" edge="1" parent="1">
          <mxGeometry width="50" height="50" relative="1" as="geometry">
            <mxPoint x="180" y="210" as="sourcePoint" />
            <mxPoint x="220" y="260" as="targetPoint" />
          </mxGeometry>
        </mxCell>
        <mxCell id="_HJAgRzO269z1ja4Z7QZ-22" value="" style="endArrow=classic;startArrow=classic;html=1;rounded=0;" edge="1" parent="1">
          <mxGeometry width="50" height="50" relative="1" as="geometry">
            <mxPoint x="260" y="120" as="sourcePoint" />
            <mxPoint x="310" y="150" as="targetPoint" />
          </mxGeometry>
        </mxCell>
        <mxCell id="_HJAgRzO269z1ja4Z7QZ-24" value="" style="endArrow=classic;startArrow=classic;html=1;rounded=0;entryX=0.057;entryY=0.143;entryDx=0;entryDy=0;entryPerimeter=0;" edge="1" parent="1" target="_HJAgRzO269z1ja4Z7QZ-2">
          <mxGeometry width="50" height="50" relative="1" as="geometry">
            <mxPoint x="180" y="190" as="sourcePoint" />
            <mxPoint x="360" y="223.33333333333326" as="targetPoint" />
          </mxGeometry>
        </mxCell>
        <mxCell id="_HJAgRzO269z1ja4Z7QZ-25" value="" style="endArrow=classic;startArrow=classic;html=1;rounded=0;" edge="1" parent="1">
          <mxGeometry width="50" height="50" relative="1" as="geometry">
            <mxPoint x="432" y="266" as="sourcePoint" />
            <mxPoint x="496" y="250" as="targetPoint" />
          </mxGeometry>
        </mxCell>
        <mxCell id="_HJAgRzO269z1ja4Z7QZ-26" value="" style="endArrow=classic;startArrow=classic;html=1;rounded=0;" edge="1" parent="1">
          <mxGeometry width="50" height="50" relative="1" as="geometry">
            <mxPoint x="428" y="254" as="sourcePoint" />
            <mxPoint x="513" y="152" as="targetPoint" />
          </mxGeometry>
        </mxCell>
        <mxCell id="_HJAgRzO269z1ja4Z7QZ-27" value="" style="endArrow=classic;startArrow=classic;html=1;rounded=0;" edge="1" parent="1">
          <mxGeometry width="50" height="50" relative="1" as="geometry">
            <mxPoint x="503" y="237" as="sourcePoint" />
            <mxPoint x="516" y="161" as="targetPoint" />
          </mxGeometry>
        </mxCell>
        <mxCell id="_HJAgRzO269z1ja4Z7QZ-28" value="" style="endArrow=classic;startArrow=classic;html=1;rounded=0;" edge="1" parent="1">
          <mxGeometry width="50" height="50" relative="1" as="geometry">
            <mxPoint x="435" y="132" as="sourcePoint" />
            <mxPoint x="512" y="145" as="targetPoint" />
          </mxGeometry>
        </mxCell>
        <mxCell id="_HJAgRzO269z1ja4Z7QZ-29" value="&lt;font style=&quot;font-size: 24px;&quot; data-font-src=&quot;https://fonts.googleapis.com/css?family=Gloria+Hallelujah&quot; face=&quot;Gloria Hallelujah&quot;&gt;A&lt;/font&gt;" style="text;html=1;strokeColor=none;fillColor=none;align=center;verticalAlign=middle;whiteSpace=wrap;rounded=0;sketch=1;" vertex="1" parent="1">
          <mxGeometry x="137.5" y="300" width="60" height="30" as="geometry" />
        </mxCell>
        <mxCell id="_HJAgRzO269z1ja4Z7QZ-30" value="&lt;font data-font-src=&quot;https://fonts.googleapis.com/css?family=Gloria+Hallelujah&quot; style=&quot;font-size: 24px;&quot; face=&quot;Gloria Hallelujah&quot;&gt;B&lt;/font&gt;" style="text;html=1;strokeColor=none;fillColor=none;align=center;verticalAlign=middle;whiteSpace=wrap;rounded=0;sketch=1;" vertex="1" parent="1">
          <mxGeometry x="436" y="300" width="60" height="30" as="geometry" />
        </mxCell>
      </root>
    </mxGraphModel>
  </diagram>
</mxfile>
